<svg xmlns="http://www.w3.org/2000/svg" xmlns:xlink="http://www.w3.org/1999/xlink">
  <symbol viewBox="0 0 40 40" id="loud">
    <title>Loud</title>
    <path
      d="M30.60498701171875,7.038026828125C31.25598701171875,6.387250828125,32.31118701171875,6.387409828125,32.96198701171875,7.038381828125C36.39898701171875,10.476378828125,38.32988701171875,15.138698828125,38.32988701171875,20.000048828125C38.32988701171875,24.861348828125,36.39898701171875,29.523748828125,32.96198701171875,32.961748828124996C32.31118701171875,33.612748828125,31.25598701171875,33.612848828124996,30.60498701171875,32.962048828125C29.95398701171875,32.311248828125,29.95388701171875,31.256048828125,30.60468701171875,30.605048828125C33.41668701171875,27.792048828125,34.99648701171875,23.977548828125,34.99648701171875,20.000048828125C34.99648701171875,16.022578828125,33.41668701171875,12.207968828125,30.60468701171875,9.395048828125C29.95388701171875,8.744078828125,29.95398701171875,7.688798828125,30.60498701171875,7.038026828125ZM19.05538701171875,6.831210828125C19.63288701171875,7.108743828125,19.99998701171875,7.692708828125,19.99998701171875,8.333378828125C19.99998701171875,8.333378828125,19.99998701171875,31.666748828125,19.99998701171875,31.666748828125C19.99998701171875,32.307348828125,19.63288701171875,32.891348828125004,19.05538701171875,33.168848828125C18.47788701171875,33.446348828125,17.79248701171875,33.368348828125,17.292187011718752,32.968248828125C17.292187011718752,32.968248828125,9.41538701171875,26.666748828125,9.41538701171875,26.666748828125C9.41538701171875,26.666748828125,3.33335701171875,26.666748828125,3.33335701171875,26.666748828125C2.4128790117187497,26.666748828125,1.66668701171875,25.920548828125,1.66668701171875,25.000048828125C1.66668701171875,25.000048828125,1.66668701171875,15.000048828125,1.66668701171875,15.000048828125C1.66668701171875,14.079578828125001,2.4128790117187497,13.333378828125,3.33335701171875,13.333378828125C3.33335701171875,13.333378828125,9.41538701171875,13.333378828125,9.41538701171875,13.333378828125C9.41538701171875,13.333378828125,17.292187011718752,7.031933828125,17.292187011718752,7.031933828125C17.79248701171875,6.631707828125,18.47788701171875,6.553677108125,19.05538701171875,6.831210828125ZM16.66668701171875,11.801078828125C16.66668701171875,11.801078828125,11.04116701171875,16.301498828125,11.04116701171875,16.301498828125C10.74565701171875,16.537918828125,10.37846701171875,16.666748828125,10.00001701171875,16.666748828125C10.00001701171875,16.666748828125,5.00001701171875,16.666748828125,5.00001701171875,16.666748828125C5.00001701171875,16.666748828125,5.00001701171875,23.333348828125,5.00001701171875,23.333348828125C5.00001701171875,23.333348828125,10.00001701171875,23.333348828125,10.00001701171875,23.333348828125C10.37846701171875,23.333348828125,10.74565701171875,23.462248828125,11.04116701171875,23.698548828125C11.04116701171875,23.698548828125,16.66668701171875,28.199048828125,16.66668701171875,28.199048828125C16.66668701171875,28.199048828125,16.66668701171875,11.801078828125,16.66668701171875,11.801078828125ZM24.72168701171875,12.921368828125C25.37268701171875,12.270578828125,26.42788701171875,12.270748828125,27.07868701171875,12.921718828125C28.95338701171875,14.796998828125,30.00648701171875,17.340048828125,30.00648701171875,19.991748828125C30.00648701171875,22.643348828125,28.95338701171875,25.186348828125,27.07868701171875,27.061748828125C26.42788701171875,27.712748828125,25.37268701171875,27.712848828125,24.72168701171875,27.062048828125C24.07068701171875,26.411248828125,24.07048701171875,25.356048828125,24.72138701171875,24.705048828125C25.97118701171875,23.454848828125,26.67318701171875,21.759448828125002,26.67318701171875,19.991748828125C26.67318701171875,18.223948828125,25.97118701171875,16.528568828125,24.72138701171875,15.278378828125C24.07048701171875,14.627418828125,24.07068701171875,13.572128828124999,24.72168701171875,12.921368828125Z"
      fill-rule="evenodd" fill="#333333" fill-opacity="1" />
  </symbol>
  <symbol viewBox="0 0 40 40" id="menu">
    <title>Menu</title>
    <path
        d="M3.3333740234375,9.999921953125C3.3333740234375,9.079443953125,4.0795660234375,8.333251953125,5.0000440234375,8.333251953125C5.0000440234375,8.333251953125,35.0000740234375,8.333251953125,35.0000740234375,8.333251953125C35.9205740234375,8.333251953125,36.6666740234375,9.079443953125,36.6666740234375,9.999921953125C36.6666740234375,10.920381953125,35.9205740234375,11.666581953125,35.0000740234375,11.666581953125C35.0000740234375,11.666581953125,5.0000440234375,11.666581953125,5.0000440234375,11.666581953125C4.0795660234375,11.666581953125,3.3333740234375,10.920381953125,3.3333740234375,9.999921953125C3.3333740234375,9.999921953125,3.3333740234375,9.999921953125,3.3333740234375,9.999921953125ZM3.3333740234375,19.999951953125C3.3333740234375,19.079451953125,4.0795660234375,18.333251953125,5.0000440234375,18.333251953125C5.0000440234375,18.333251953125,35.0000740234375,18.333251953125,35.0000740234375,18.333251953125C35.9205740234375,18.333251953125,36.6666740234375,19.079451953125,36.6666740234375,19.999951953125C36.6666740234375,20.920351953125,35.9205740234375,21.666551953125,35.0000740234375,21.666551953125C35.0000740234375,21.666551953125,5.0000440234375,21.666551953125,5.0000440234375,21.666551953125C4.0795660234375,21.666551953125,3.3333740234375,20.920351953125,3.3333740234375,19.999951953125C3.3333740234375,19.999951953125,3.3333740234375,19.999951953125,3.3333740234375,19.999951953125ZM3.3333740234375,29.999951953125C3.3333740234375,29.079451953125,4.0795660234375,28.333251953125,5.0000440234375,28.333251953125C5.0000440234375,28.333251953125,35.0000740234375,28.333251953125,35.0000740234375,28.333251953125C35.9205740234375,28.333251953125,36.6666740234375,29.079451953125,36.6666740234375,29.999951953125C36.6666740234375,30.920451953125,35.9205740234375,31.666551953125,35.0000740234375,31.666551953125C35.0000740234375,31.666551953125,5.0000440234375,31.666551953125,5.0000440234375,31.666551953125C4.0795660234375,31.666551953125,3.3333740234375,30.920451953125,3.3333740234375,29.999951953125C3.3333740234375,29.999951953125,3.3333740234375,29.999951953125,3.3333740234375,29.999951953125Z"
        fill-rule="evenodd" fill="#333333" fill-opacity="1" />
  </symbol>
  <symbol viewBox="0 0 40 40" id="mute">
    <title>Mute</title>
    <path
      d="M19.05538701171875,6.83101390625C19.63288701171875,7.10854690625,19.99998701171875,7.69251390625,19.99998701171875,8.33318390625C19.99998701171875,8.33318390625,19.99998701171875,31.66650390625,19.99998701171875,31.66650390625C19.99998701171875,32.307203906249995,19.63288701171875,32.89120390625,19.05538701171875,33.16870390625C18.47788701171875,33.44620390625,17.79248701171875,33.36820390625,17.292187011718752,32.968003906250004C17.292187011718752,32.968003906250004,9.41538701171875,26.66650390625,9.41538701171875,26.66650390625C9.41538701171875,26.66650390625,3.33335701171875,26.66650390625,3.33335701171875,26.66650390625C2.4128790117187497,26.66650390625,1.66668701171875,25.92030390625,1.66668701171875,24.99980390625C1.66668701171875,24.99980390625,1.66668701171875,14.99985390625,1.66668701171875,14.99985390625C1.66668701171875,14.07937390625,2.4128790117187497,13.33318390625,3.33335701171875,13.33318390625C3.33335701171875,13.33318390625,9.41538701171875,13.33318390625,9.41538701171875,13.33318390625C9.41538701171875,13.33318390625,17.292187011718752,7.03173890625,17.292187011718752,7.03173890625C17.79248701171875,6.63151160625,18.47788701171875,6.55348090625,19.05538701171875,6.83101390625ZM16.66668701171875,11.80088390625C16.66668701171875,11.80088390625,11.04116701171875,16.30130390625,11.04116701171875,16.30130390625C10.74565701171875,16.53772390625,10.37846701171875,16.66650390625,10.00001701171875,16.66650390625C10.00001701171875,16.66650390625,5.00001701171875,16.66650390625,5.00001701171875,16.66650390625C5.00001701171875,16.66650390625,5.00001701171875,23.33320390625,5.00001701171875,23.33320390625C5.00001701171875,23.33320390625,10.00001701171875,23.33320390625,10.00001701171875,23.33320390625C10.37846701171875,23.33320390625,10.74565701171875,23.46200390625,11.04116701171875,23.69830390625C11.04116701171875,23.69830390625,16.66668701171875,28.19880390625,16.66668701171875,28.19880390625C16.66668701171875,28.19880390625,16.66668701171875,11.80088390625,16.66668701171875,11.80088390625ZM27.15488701171875,13.82133390625C27.80568701171875,13.170473906249999,28.86098701171875,13.170473906249999,29.51188701171875,13.82133390625C29.51188701171875,13.82133390625,33.33338701171875,17.642803906250002,33.33338701171875,17.642803906250002C33.33338701171875,17.642803906250002,37.15488701171875,13.82133390625,37.15488701171875,13.82133390625C37.80568701171875,13.170473906249999,38.86098701171875,13.170473906249999,39.51188701171875,13.82133390625C40.16268701171875,14.47222390625,40.16268701171875,15.52748390625,39.51188701171875,16.178373906250002C39.51188701171875,16.178373906250002,35.69038701171875,19.99980390625,35.69038701171875,19.99980390625C35.69038701171875,19.99980390625,39.51188701171875,23.82130390625,39.51188701171875,23.82130390625C40.16268701171875,24.47220390625,40.16268701171875,25.52750390625,39.51188701171875,26.17830390625C38.86098701171875,26.82920390625,37.80568701171875,26.82920390625,37.15488701171875,26.17830390625C37.15488701171875,26.17830390625,33.33338701171875,22.35690390625,33.33338701171875,22.35690390625C33.33338701171875,22.35690390625,29.51188701171875,26.17830390625,29.51188701171875,26.17830390625C28.86098701171875,26.82920390625,27.80568701171875,26.82920390625,27.15488701171875,26.17830390625C26.50398701171875,25.52750390625,26.50398701171875,24.47220390625,27.15488701171875,23.82130390625C27.15488701171875,23.82130390625,30.97638701171875,19.99980390625,30.97638701171875,19.99980390625C30.97638701171875,19.99980390625,27.15488701171875,16.178373906250002,27.15488701171875,16.178373906250002C26.50398701171875,15.52748390625,26.50398701171875,14.47222390625,27.15488701171875,13.82133390625Z"
      fill-rule="evenodd" fill="#333333" fill-opacity="1" />
  </symbol>
  <symbol viewBox="0 0 40 40" id="next">
    <title>Next</title>
    <path
        d="M7.611356752929687,5.16451C8.188801752929688,4.886977,8.874221752929687,4.9650077,9.374501752929687,5.365235C9.374501752929687,5.365235,26.04117175292969,18.6986,26.04117175292969,18.6986C26.436471752929688,19.0148,26.666671752929688,19.4937,26.666671752929688,20C26.666671752929688,20.5063,26.436471752929688,20.9852,26.04117175292969,21.3015C26.04117175292969,21.3015,9.374501752929687,34.6348,9.374501752929687,34.6348C8.874221752929687,35.035,8.188801752929688,35.113,7.611356752929687,34.835499999999996C7.033914752929688,34.558,6.6666717529296875,33.974000000000004,6.6666717529296875,33.3333C6.6666717529296875,33.3333,6.6666717529296875,6.6666799999999995,6.6666717529296875,6.6666799999999995C6.6666717529296875,6.02601,7.033914752929688,5.442043,7.611356752929687,5.16451ZM10.000001752929688,10.13438C10.000001752929688,10.13438,10.000001752929688,29.8657,10.000001752929688,29.8657C10.000001752929688,29.8657,22.332071752929686,20,22.332071752929686,20C22.332071752929686,20,10.000001752929688,10.13438,10.000001752929688,10.13438ZM31.666671752929688,6.6666799999999995C32.58717175292969,6.6666799999999995,33.333371752929686,7.41287,33.333371752929686,8.33335C33.333371752929686,8.33335,33.333371752929686,31.6667,33.333371752929686,31.6667C33.333371752929686,32.587199999999996,32.58717175292969,33.3333,31.666671752929688,33.3333C30.746171752929687,33.3333,29.99997175292969,32.587199999999996,29.99997175292969,31.6667C29.99997175292969,31.6667,29.99997175292969,8.33335,29.99997175292969,8.33335C29.99997175292969,7.41287,30.746171752929687,6.6666799999999995,31.666671752929688,6.6666799999999995Z"
        fill-rule="evenodd" fill="#333333" fill-opacity="1" />
  </symbol>
  <symbol viewBox="0 0 40 40" id="order">
    <title>Order</title>
    <path
        d="M27.1548740234375,0.488155C27.8056740234375,-0.162718,28.8610740234375,-0.162718,29.5118740234375,0.488155C29.5118740234375,0.488155,36.1785740234375,7.15482,36.1785740234375,7.15482C36.8293740234375,7.8057,36.8293740234375,8.86097,36.1785740234375,9.51185C36.1785740234375,9.51185,29.5118740234375,16.1785,29.5118740234375,16.1785C28.8610740234375,16.8293,27.8056740234375,16.8293,27.1548740234375,16.1785C26.5040740234375,15.5276,26.5040740234375,14.4724,27.1548740234375,13.8215C27.1548740234375,13.8215,30.9763740234375,10,30.9763740234375,10C30.9763740234375,10,11.6667040234375,10,11.6667040234375,10C10.340624023437499,10,9.068854023437499,10.5268,8.131174023437499,11.4645C7.1934940234375,12.4021,6.6667040234375,13.6739,6.6667040234375,15C6.6667040234375,15,6.6667040234375,18.3333,6.6667040234375,18.3333C6.6667040234375,19.2538,5.9205040234375,20,5.0000440234375,20C4.0795660234375,20,3.3333740482728,19.2538,3.3333740482728,18.3333C3.3333740482728,18.3333,3.3333740482728,15,3.3333740482728,15C3.3333740482728,12.7899,4.2113470234375,10.6702,5.7741540234375,9.10745C7.3369540234375,7.54463,9.4565740234375,6.66667,11.6667040234375,6.66667C11.6667040234375,6.66667,30.9763740234375,6.66667,30.9763740234375,6.66667C30.9763740234375,6.66667,27.1548740234375,2.84518,27.1548740234375,2.84518C26.5040740234375,2.1943,26.5040740234375,1.13903,27.1548740234375,0.488155ZM33.3333740234375,25C33.3333740234375,25,33.3333740234375,21.6667,33.3333740234375,21.6667C33.3333740234375,20.7462,34.0795740234375,20,35.0000740234375,20C35.9205740234375,20,36.6666740234375,20.7462,36.6666740234375,21.6667C36.6666740234375,21.6667,36.6666740234375,25,36.6666740234375,25C36.6666740234375,27.2102,35.7886740234375,29.3298,34.2258740234375,30.8925C32.6631740234375,32.4553,30.5435740234375,33.3333,28.3333740234375,33.3333C28.3333740234375,33.3333,9.023724023437499,33.3333,9.023724023437499,33.3333C9.023724023437499,33.3333,12.8452240234375,37.1548,12.8452240234375,37.1548C13.4960740234375,37.8057,13.4960740234375,38.861,12.8452240234375,39.5118C12.1943440234375,40.1627,11.1390740234375,40.1627,10.4881940234375,39.5118C10.4881940234375,39.5118,3.8215290234375,32.8452,3.8215290234375,32.8452C3.1706560234375,32.1943,3.1706560234375,31.139,3.8215290234375,30.4882C3.8215290234375,30.4882,10.4881940234375,23.8215,10.4881940234375,23.8215C11.1390740234375,23.1707,12.1943440234375,23.1707,12.8452240234375,23.8215C13.4960740234375,24.4723,13.4960740234375,25.5277,12.8452240234375,26.1785C12.8452240234375,26.1785,9.023724023437499,30,9.023724023437499,30C9.023724023437499,30,28.3333740234375,30,28.3333740234375,30C29.6593740234375,30,30.9311740234375,29.4732,31.8688740234375,28.5355C32.8065740234375,27.5978,33.3333740234375,26.326,33.3333740234375,25Z"
        fill-rule="evenodd" fill="#333333" fill-opacity="1" />
  </symbol>
  <symbol viewBox="0 0 24 24" id="play">
    <title>Play</title>
    <path
        d="M4.640999,1.138932C5.03617,0.9397849,5.5176,0.955703,5.89632,1.180437C5.89632,1.180437,23.1271,11.4053,23.1271,11.4053C23.4794,11.6143,23.6923,11.9744,23.6923,12.3609C23.6923,12.7476,23.4794,13.1076,23.1271,13.3166C23.1271,13.3166,5.89632,23.5415,5.89632,23.5415C5.5176,23.7662,5.03617,23.7821,4.640999,23.5829C4.245833,23.3838,4,23.0014,4,22.5858C4,22.5858,4,2.1360900000000003,4,2.1360900000000003C4,1.720504,4.245833,1.3380779999999999,4.640999,1.138932Z"
        fill-rule="evenodd" fill-opacity="1" />
  </symbol>
  <symbol viewBox="0 0 40 40" id="pre">
    <title>Pre</title>
    <path
        d="M32.388656494140626,5.16451C32.96615649414062,5.442043,33.333356494140624,6.02601,33.333356494140624,6.6666799999999995C33.333356494140624,6.6666799999999995,33.333356494140624,33.3333,33.333356494140624,33.3333C33.333356494140624,33.974000000000004,32.96615649414062,34.558,32.388656494140626,34.835499999999996C31.811156494140626,35.113,31.125856494140624,35.035,30.625456494140625,34.6348C30.625456494140625,34.6348,13.958836494140625,21.3015,13.958836494140625,21.3015C13.563476494140625,20.9852,13.333326494140625,20.5063,13.333326494140625,20C13.333326494140625,19.4937,13.563476494140625,19.0148,13.958836494140625,18.6986C13.958836494140625,18.6986,30.625456494140625,5.365235,30.625456494140625,5.365235C31.125856494140624,4.9650077,31.811156494140626,4.886977,32.388656494140626,5.16451ZM17.667956494140626,20C17.667956494140626,20,29.999956494140626,29.8657,29.999956494140626,29.8657C29.999956494140626,29.8657,29.999956494140626,10.13438,29.999956494140626,10.13438C29.999956494140626,10.13438,17.667956494140626,20,17.667956494140626,20ZM8.333326494140625,6.6666799999999995C9.253786494140625,6.6666799999999995,9.999986494140625,7.41287,9.999986494140625,8.33335C9.999986494140625,8.33335,9.999986494140625,31.6667,9.999986494140625,31.6667C9.999986494140625,32.587199999999996,9.253786494140625,33.3333,8.333326494140625,33.3333C7.412848494140625,33.3333,6.666656494140625,32.587199999999996,6.666656494140625,31.6667C6.666656494140625,31.6667,6.666656494140625,8.33335,6.666656494140625,8.33335C6.666656494140625,7.41287,7.412848494140625,6.6666799999999995,8.333326494140625,6.6666799999999995Z"
        fill-rule="evenodd" fill="#333333" fill-opacity="1" />
  </symbol>
  <symbol viewBox="0 0 24 24" id="pause">
    <title>Pause</title>
    <path
        d="M3,4.05556C3,3.472588,3.472588,3,4.05556,3C4.05556,3,8.27778,3,8.27778,3C8.86074,3,9.33333,3.472588,9.33333,4.05556C9.33333,4.05556,9.33333,20.9444,9.33333,20.9444C9.33333,21.5274,8.86074,22,8.27778,22C8.27778,22,4.05556,22,4.05556,22C3.472588,22,3,21.5274,3,20.9444C3,20.9444,3,4.05556,3,4.05556C3,4.05556,3,4.05556,3,4.05556ZM14.6111,4.05556C14.6111,3.472588,15.0837,3,15.6667,3C15.6667,3,19.8889,3,19.8889,3C20.4719,3,20.9444,3.472588,20.9444,4.05556C20.9444,4.05556,20.9444,20.9444,20.9444,20.9444C20.9444,21.5274,20.4719,22,19.8889,22C19.8889,22,15.6667,22,15.6667,22C15.0837,22,14.6111,21.5274,14.6111,20.9444C14.6111,20.9444,14.6111,4.05556,14.6111,4.05556C14.6111,4.05556,14.6111,4.05556,14.6111,4.05556Z"
        fill-rule="evenodd" fill-opacity="1" />
  </symbol>
  <symbol viewBox="0 0 40 40" id="quiet">
    <title>Quiet</title>
    <path
        d="M19.05538701171875,6.831258046875C19.63288701171875,7.108791046875,19.99998701171875,7.692758046875,19.99998701171875,8.333428046875C19.99998701171875,8.333428046875,19.99998701171875,31.666748046875,19.99998701171875,31.666748046875C19.99998701171875,32.307448046874995,19.63288701171875,32.891448046875,19.05538701171875,33.168948046875C18.47788701171875,33.446448046875,17.79248701171875,33.368448046875,17.292187011718752,32.968248046875004C17.292187011718752,32.968248046875004,9.41538701171875,26.666748046875,9.41538701171875,26.666748046875C9.41538701171875,26.666748046875,3.33335701171875,26.666748046875,3.33335701171875,26.666748046875C2.4128790117187497,26.666748046875,1.66668701171875,25.920548046875,1.66668701171875,25.000048046875C1.66668701171875,25.000048046875,1.66668701171875,15.000098046875,1.66668701171875,15.000098046875C1.66668701171875,14.079618046875,2.4128790117187497,13.333428046875,3.33335701171875,13.333428046875C3.33335701171875,13.333428046875,9.41538701171875,13.333428046875,9.41538701171875,13.333428046875C9.41538701171875,13.333428046875,17.292187011718752,7.031983046875,17.292187011718752,7.031983046875C17.79248701171875,6.631755746875,18.47788701171875,6.553725046875,19.05538701171875,6.831258046875ZM16.66668701171875,11.801128046875C16.66668701171875,11.801128046875,11.04116701171875,16.301548046875,11.04116701171875,16.301548046875C10.74565701171875,16.537968046875,10.37846701171875,16.666748046875,10.00001701171875,16.666748046875C10.00001701171875,16.666748046875,5.00001701171875,16.666748046875,5.00001701171875,16.666748046875C5.00001701171875,16.666748046875,5.00001701171875,23.333448046875,5.00001701171875,23.333448046875C5.00001701171875,23.333448046875,10.00001701171875,23.333448046875,10.00001701171875,23.333448046875C10.37846701171875,23.333448046875,10.74565701171875,23.462248046875,11.04116701171875,23.698548046875C11.04116701171875,23.698548046875,16.66668701171875,28.199048046875,16.66668701171875,28.199048046875C16.66668701171875,28.199048046875,16.66668701171875,11.801128046875,16.66668701171875,11.801128046875Z"
        fill-rule="evenodd" fill="#333333" fill-opacity="1" />
  </symbol>
  <symbol viewBox="0 0 40 40" id="rand">
    <title>Rand</title>
    <path
        d="M30.0337125,12.723955C28.1284125,12.723955,23.3771125,17.457675000000002,19.9076125,20.812875C14.6474125,25.900575,9.6785925,30.844175,5.7017125,30.844175L3.2556225000000003,30.844175C2.2558595,30.844175,1.4453125,30.032375,1.4453125,29.032175C1.4453125,28.031975,2.2558205,27.220175,3.2555425,27.220175L5.7017225,27.220175C8.214802500000001,27.220175,13.3030125,22.160875,17.3914125,18.206675C22.3673125,13.394265,26.6645125,9.099855,30.0337125,9.099855L32.368412500000005,9.099855L29.8912125,6.695555000000001C29.1836125,5.988995,29.1825125,4.911765,29.8887125,4.203839C30.5950125,3.495714,31.7412125,3.494308,32.4487125,4.201105L38.0232125,9.767315C38.3635125,10.106645,38.5547125,10.567454999999999,38.5547125,11.048055C38.5547125,11.528835,38.3635125,11.987895,38.0233125,12.327705L32.4487125,17.890175C32.095412499999995,18.242975,31.6326125,18.410875,31.1699125,18.410875C30.7061125,18.410875,30.2423125,18.216375,29.8887125,17.861975C29.1825125,17.154175000000002,29.1837125,15.972975,29.8912125,15.266475L32.368412500000005,12.723915L30.0337125,12.723915L30.0337125,12.723955ZM32.4487125,22.045275C31.7412125,21.338475,30.5949125,21.339575,29.8887125,22.047775C29.1825125,22.755575,29.1837125,23.971075,29.8912125,24.677575L32.368412500000005,27.220075L30.0337125,27.220075C28.5470125,27.220075,26.0633125,25.018675,23.6007125,22.714175C22.8706125,22.030875,21.7249125,22.034675,21.0423125,22.765175C20.3592125,23.495675,20.3975125,24.694175,21.1276125,25.377275C24.8792125,28.888875,27.4098125,30.844175,30.0337125,30.844175L32.368412500000005,30.844175L29.8912125,33.248374999999996C29.1836125,33.954975000000005,29.1825125,35.066874999999996,29.8887125,35.774775C30.2423125,36.129075,30.7061125,36.289075,31.1699125,36.289075C31.6326125,36.289075,32.095412499999995,36.103875,32.4487125,35.751075L38.0232125,30.179975C38.3635125,29.840175,38.5546125,29.376875,38.5546125,28.895975C38.5547125,28.414875,38.3635125,27.953375,38.0232125,27.613175L32.4487125,22.045275ZM3.2555425,12.723955L5.7017225,12.723955C7.6095325,12.723955,10.4535125,15.154375,12.7178125,17.211975000000002C13.0647125,17.526975,13.5001125,17.716775,13.9345125,17.716775C14.4268125,17.716775,14.9178125,17.534075,15.2749125,17.140575C15.9471125,16.400175,15.8921125,15.193775,15.1520125,14.521275C11.6112125,11.303875,8.649022500000001,9.099895,5.7017225,9.099895L3.2555425,9.099895C2.2558205,9.099895,1.4453125,9.911845,1.4453125,10.911965C1.4453125,11.912085,2.2558595,12.723955,3.2555425,12.723955Z"
        fill="#333333" fill-opacity="1" />
  </symbol>
  <symbol viewBox="0 0 40 40" id="repeat">
    <title>Repeat</title>
    <path
        d="M29.51187378501892,0.488155C28.86107378501892,-0.162718,27.80567378501892,-0.162718,27.15487378501892,0.488155C26.50407378501892,1.13903,26.50407378501892,2.1943,27.15487378501892,2.84518L30.97637378501892,6.66667L11.666703785018921,6.66667C9.456573785018922,6.66667,7.336953785018921,7.54463,5.774153785018921,9.10745C4.211346785018921,10.6702,3.333373785018921,12.7899,3.333373785018921,15L3.333373785018921,18.3333C3.333373785018921,19.2538,4.079565785018921,20,5.000043785018921,20C5.920503785018921,20,6.666703785018921,19.2538,6.666703785018921,18.3333L6.666703785018921,15C6.666703785018921,13.6739,7.193493785018921,12.4021,8.13117378501892,11.4645C9.06885378501892,10.5268,10.34062378501892,10,11.666703785018921,10L30.97637378501892,10L27.15487378501892,13.8215C26.50407378501892,14.4724,26.50407378501892,15.5276,27.15487378501892,16.1785C27.80567378501892,16.8293,28.86107378501892,16.8293,29.51187378501892,16.1785L36.17857378501892,9.51185C36.82937378501892,8.86097,36.82937378501892,7.8057,36.17857378501892,7.15482L29.51187378501892,0.488155ZM18.87597378501892,25.1881C18.87597378501892,25.9127,19.46337378501892,26.5001,20.187973785018922,26.5001C20.91257378501892,26.5001,21.49997378501892,25.9127,21.49997378501892,25.1881L21.49997378501892,16.2177C21.49997378501892,15.219,20.79507378501892,14.3591,19.81577378501892,14.1632C19.29187378501892,14.0585,18.74767378501892,14.1578,18.294473785018923,14.441L15.77107378501892,16.0182C15.325673785018921,16.2966,15.145773785018921,16.8554,15.34507378501892,17.3414C15.59497378501892,17.9507,16.33027378501892,18.1944,16.895473785018922,17.8563Q18.06527378501892,17.1568,18.33177378501892,16.9872L18.33917378501892,16.9825C18.58367378501892,16.8267,18.92127378501892,17.0293,18.90677378501892,17.3189Q18.87597378501892,17.9355,18.87597378501892,18.7519L18.87597378501892,25.1881ZM33.33337378501892,21.6667L33.33337378501892,25C33.33337378501892,26.326,32.80657378501892,27.5978,31.86887378501892,28.5355C30.93117378501892,29.4732,29.65937378501892,30,28.33337378501892,30L9.02372378501892,30L12.845223785018922,26.1785C13.49607378501892,25.5277,13.49607378501892,24.4723,12.845223785018922,23.8215C12.194343785018921,23.1707,11.13907378501892,23.1707,10.488193785018922,23.8215L3.821528785018921,30.4882C3.170655785018921,31.139,3.170655785018921,32.1943,3.821528785018921,32.8452L10.488193785018922,39.5118C11.13907378501892,40.1627,12.194343785018921,40.1627,12.845223785018922,39.5118C13.49607378501892,38.861,13.49607378501892,37.8057,12.845223785018922,37.1548L9.02372378501892,33.3333L28.33337378501892,33.3333C30.54357378501892,33.3333,32.66317378501892,32.4553,34.22587378501892,30.8925C35.78867378501892,29.3298,36.66667378501892,27.2102,36.66667378501892,25L36.66667378501892,21.6667C36.66667378501892,20.7462,35.920573785018924,20,35.00007378501892,20C34.07957378501892,20,33.33337378501892,20.7462,33.33337378501892,21.6667Z"
        fill-rule="evenodd" fill="#333333" fill-opacity="1" />
  </symbol>
  <symbol viewBox="0 0 40 40" id="volume">
    <title>Volume</title>
    <path
        d="M19.05538701171875,6.831258046875C19.63288701171875,7.108791046875,19.99998701171875,7.692758046875,19.99998701171875,8.333428046875C19.99998701171875,8.333428046875,19.99998701171875,31.666748046875,19.99998701171875,31.666748046875C19.99998701171875,32.307448046874995,19.63288701171875,32.891448046875,19.05538701171875,33.168948046875C18.47788701171875,33.446448046875,17.79248701171875,33.368448046875,17.292187011718752,32.968248046875004C17.292187011718752,32.968248046875004,9.41538701171875,26.666748046875,9.41538701171875,26.666748046875C9.41538701171875,26.666748046875,3.33335701171875,26.666748046875,3.33335701171875,26.666748046875C2.4128790117187497,26.666748046875,1.66668701171875,25.920548046875,1.66668701171875,25.000048046875C1.66668701171875,25.000048046875,1.66668701171875,15.000098046875,1.66668701171875,15.000098046875C1.66668701171875,14.079618046875,2.4128790117187497,13.333428046875,3.33335701171875,13.333428046875C3.33335701171875,13.333428046875,9.41538701171875,13.333428046875,9.41538701171875,13.333428046875C9.41538701171875,13.333428046875,17.292187011718752,7.031983046875,17.292187011718752,7.031983046875C17.79248701171875,6.631755746875,18.47788701171875,6.553725046875,19.05538701171875,6.831258046875ZM16.66668701171875,11.801128046875C16.66668701171875,11.801128046875,11.04116701171875,16.301548046875,11.04116701171875,16.301548046875C10.74565701171875,16.537968046875,10.37846701171875,16.666748046875,10.00001701171875,16.666748046875C10.00001701171875,16.666748046875,5.00001701171875,16.666748046875,5.00001701171875,16.666748046875C5.00001701171875,16.666748046875,5.00001701171875,23.333448046875,5.00001701171875,23.333448046875C5.00001701171875,23.333448046875,10.00001701171875,23.333448046875,10.00001701171875,23.333448046875C10.37846701171875,23.333448046875,10.74565701171875,23.462248046875,11.04116701171875,23.698548046875C11.04116701171875,23.698548046875,16.66668701171875,28.199048046875,16.66668701171875,28.199048046875C16.66668701171875,28.199048046875,16.66668701171875,11.801128046875,16.66668701171875,11.801128046875ZM24.72168701171875,12.921418046875C25.37268701171875,12.270628046875,26.42788701171875,12.270798046875,27.07868701171875,12.921768046875C28.95338701171875,14.797048046875,30.00648701171875,17.340148046875,30.00648701171875,19.991748046875C30.00648701171875,22.643348046874998,28.95338701171875,25.186448046875,27.07868701171875,27.061748046875C26.42788701171875,27.712748046875,25.37268701171875,27.712948046875,24.72168701171875,27.062048046875C24.07068701171875,26.411448046875,24.07048701171875,25.356048046875,24.72138701171875,24.705048046875C25.97118701171875,23.454948046875,26.67318701171875,21.759548046875,26.67318701171875,19.991748046875C26.67318701171875,18.224048046874998,25.97118701171875,16.528618046875,24.72138701171875,15.278428046875C24.07048701171875,14.627468046875,24.07068701171875,13.572178046874999,24.72168701171875,12.921418046875Z"
        fill-rule="evenodd" fill="#333333" fill-opacity="1" />
  </symbol>

</svg>
